<svg width="340" height="124" viewBox="0 0 340 124" fill="none" xmlns="http://www.w3.org/2000/svg">
<rect width="340" height="124" fill="#060B1E"/>
<mask id="mask0_83_130" style="mask-type:luminance" maskUnits="userSpaceOnUse" x="135" y="52" width="170" height="20">
<path d="M305 52H135V71.139H305V52Z" fill="white"/>
</mask>
<g mask="url(#mask0_83_130)">
<path d="M164.434 52.4501H160.201L151.948 70.8201H156.339L157.979 66.8824H158.018L159.372 63.6536H159.354L162.291 56.6182L162.305 56.6536V56.643L168.25 70.8165H172.712L164.434 52.4501Z" fill="white"/>
<path d="M135 52.319V55.7322H149.097V52.319H135ZM135 70.8237H139.319V64.0825H147.95V60.6516H135V70.8237Z" fill="white"/>
<path d="M251.001 52.319H255.316V70.8201H251.001V52.319Z" fill="white"/>
<path d="M242.837 52.319H242.834H239.261L233.538 61.9488L232.42 63.8167L225.439 52.319H221.866V70.8237H225.918V59.9569L229.88 66.4182L232.345 70.5224L234.742 66.5351C234.742 66.5351 234.742 66.5351 234.746 66.5387L234.821 66.4146L238.782 59.9534V70.8201H242.834V52.3226H242.837V52.319Z" fill="white"/>
<path d="M280.585 52.319V70.8201H277.041L267.742 59.5848V70.8201H263.48V52.319H267.049L276.323 63.5544V52.319H280.585Z" fill="white"/>
<path d="M177.353 68.9983L178.817 65.773C180.389 66.9107 182.733 67.7011 184.973 67.7011C187.531 67.7011 188.571 66.854 188.571 65.7199C188.571 62.2571 177.724 64.6353 177.724 57.763C177.724 54.6157 180.282 52 185.584 52C187.928 52 190.328 52.5565 192.057 53.6375L190.725 56.8876C188.992 55.9093 187.206 55.4344 185.555 55.4344C182.997 55.4344 182.011 56.3878 182.011 57.5503C182.011 60.9599 192.858 58.6065 192.858 65.4009C192.858 68.495 190.274 71.1355 184.944 71.1355C181.986 71.1355 179.003 70.2636 177.349 68.9948L177.353 68.9983Z" fill="white"/>
<path d="M204.182 55.8066H198.213V52.319H214.468V55.8066H208.498V70.8201H204.182V55.8066Z" fill="white"/>
<path d="M294.715 55.8066H288.745V52.319H305V55.8066H299.03V70.8201H294.715V55.8066Z" fill="white"/>
</g>
<path fill-rule="evenodd" clip-rule="evenodd" d="M113.402 32.8617L97.4828 42.0542L56.1558 18.1925L72.0749 9L95.1089 22.3L113.402 32.8617ZM51.4079 26.4109L87.9906 47.5308L72.0749 56.7233L51.4079 44.7925L46.6635 42.0542L41.9191 44.7925V50.2726V97.9891L26 88.8V62.2V35.6L46.6635 23.6692L51.4079 26.4109ZM72.0749 67.6801L62.5827 62.2L51.4079 55.7527V74.1308L72.0749 86.0617L92.7384 74.1308L102.227 68.6542V79.6109V97.9891L118.146 88.8V62.2V41.0801L106.972 47.5308L97.4828 53.0109L81.5637 62.2L72.0749 67.6801ZM62.5827 91.5418L72.0715 97.0218L81.5637 91.5418L92.7384 85.091V103.469L72.0749 115.4L51.4079 103.469V85.091L62.5827 91.5418Z" fill="url(#paint0_linear_83_130)"/>
<defs>
<linearGradient id="paint0_linear_83_130" x1="26" y1="9" x2="131.309" y2="100.201" gradientUnits="userSpaceOnUse">
<stop stop-color="#FF9791"/>
<stop offset="1" stop-color="#FF6363"/>
</linearGradient>
</defs>
</svg>
