<svg width="340" height="124" viewBox="0 0 340 124" fill="none" xmlns="http://www.w3.org/2000/svg">
<rect width="340" height="124" fill="black"/>
<g clip-path="url(#clip0_70_60)">
<mask id="mask0_70_60" style="mask-type:luminance" maskUnits="userSpaceOnUse" x="135" y="10" width="70" height="70">
<path d="M205 10H135V80H205V10Z" fill="white"/>
</mask>
<g mask="url(#mask0_70_60)">
<path d="M195.55 10H144.45C139.231 10 135 14.2309 135 19.45V70.55C135 75.7691 139.231 80 144.45 80H195.55C200.769 80 205 75.7691 205 70.55V19.45C205 14.2309 200.769 10 195.55 10Z" fill="black"/>
<mask id="mask1_70_60" style="mask-type:luminance" maskUnits="userSpaceOnUse" x="149" y="24" width="42" height="43">
<path d="M191 24H149V66.175H191V24Z" fill="white"/>
</mask>
<g mask="url(#mask1_70_60)">
<path d="M190.079 55.9825L172.426 25.4005C171.347 23.5322 168.653 23.5322 167.575 25.4005L149.921 55.9825C147.305 60.5122 150.574 66.1747 155.805 66.1747H184.197C189.426 66.1747 192.695 60.5122 190.081 55.9825H190.079ZM167.238 60.8256H155.931C154.695 60.8256 153.909 59.5002 154.502 58.4162L167.238 35.1461V60.8256ZM184.069 60.8256H172.762V35.1461L185.498 58.4162C186.091 59.5019 185.307 60.8256 184.069 60.8256Z" fill="white"/>
</g>
</g>
</g>
<path d="M113.281 100V77.0938H117.781L127.156 92.3906V77.0938H131.453V100H126.812L117.578 85.0625V100H113.281ZM135.312 91.4688C135.312 90.0104 135.672 88.599 136.391 87.2344C137.109 85.8698 138.125 84.8281 139.438 84.1094C140.76 83.3906 142.234 83.0312 143.859 83.0312C146.37 83.0312 148.427 83.849 150.031 85.4844C151.635 87.1094 152.438 89.1667 152.438 91.6562C152.438 94.1667 151.625 96.25 150 97.9062C148.385 99.5521 146.349 100.375 143.891 100.375C142.37 100.375 140.917 100.031 139.531 99.3438C138.156 98.6562 137.109 97.651 136.391 96.3281C135.672 94.9948 135.312 93.375 135.312 91.4688ZM139.812 91.7031C139.812 93.349 140.203 94.6094 140.984 95.4844C141.766 96.3594 142.729 96.7969 143.875 96.7969C145.021 96.7969 145.979 96.3594 146.75 95.4844C147.531 94.6094 147.922 93.3385 147.922 91.6719C147.922 90.0469 147.531 88.7969 146.75 87.9219C145.979 87.0469 145.021 86.6094 143.875 86.6094C142.729 86.6094 141.766 87.0469 140.984 87.9219C140.203 88.7969 139.812 90.0573 139.812 91.7031ZM163.5 83.4062V86.9062H160.5V93.5938C160.5 94.9479 160.526 95.7396 160.578 95.9688C160.641 96.1875 160.771 96.3698 160.969 96.5156C161.177 96.6615 161.427 96.7344 161.719 96.7344C162.125 96.7344 162.714 96.5938 163.484 96.3125L163.859 99.7188C162.839 100.156 161.682 100.375 160.391 100.375C159.599 100.375 158.885 100.245 158.25 99.9844C157.615 99.7135 157.146 99.3698 156.844 98.9531C156.552 98.526 156.349 97.9531 156.234 97.2344C156.141 96.724 156.094 95.6927 156.094 94.1406V86.9062H154.078V83.4062H156.094V80.1094L160.5 77.5469V83.4062H163.5ZM181.016 88.3125L176.688 89.0938C176.542 88.2292 176.208 87.5781 175.688 87.1406C175.177 86.7031 174.51 86.4844 173.688 86.4844C172.594 86.4844 171.719 86.8646 171.062 87.625C170.417 88.375 170.094 89.6354 170.094 91.4062C170.094 93.375 170.422 94.7656 171.078 95.5781C171.745 96.3906 172.635 96.7969 173.75 96.7969C174.583 96.7969 175.266 96.5625 175.797 96.0938C176.328 95.6146 176.703 94.7969 176.922 93.6406L181.234 94.375C180.786 96.3542 179.927 97.849 178.656 98.8594C177.385 99.8698 175.682 100.375 173.547 100.375C171.12 100.375 169.182 99.6094 167.734 98.0781C166.297 96.5469 165.578 94.4271 165.578 91.7188C165.578 88.9792 166.302 86.849 167.75 85.3281C169.198 83.7969 171.156 83.0312 173.625 83.0312C175.646 83.0312 177.25 83.4688 178.438 84.3438C179.635 85.2083 180.495 86.5312 181.016 88.3125ZM183.344 91.4688C183.344 90.0104 183.703 88.599 184.422 87.2344C185.141 85.8698 186.156 84.8281 187.469 84.1094C188.792 83.3906 190.266 83.0312 191.891 83.0312C194.401 83.0312 196.458 83.849 198.062 85.4844C199.667 87.1094 200.469 89.1667 200.469 91.6562C200.469 94.1667 199.656 96.25 198.031 97.9062C196.417 99.5521 194.38 100.375 191.922 100.375C190.401 100.375 188.948 100.031 187.562 99.3438C186.188 98.6562 185.141 97.651 184.422 96.3281C183.703 94.9948 183.344 93.375 183.344 91.4688ZM187.844 91.7031C187.844 93.349 188.234 94.6094 189.016 95.4844C189.797 96.3594 190.76 96.7969 191.906 96.7969C193.052 96.7969 194.01 96.3594 194.781 95.4844C195.562 94.6094 195.953 93.3385 195.953 91.6719C195.953 90.0469 195.562 88.7969 194.781 87.9219C194.01 87.0469 193.052 86.6094 191.906 86.6094C190.76 86.6094 189.797 87.0469 189.016 87.9219C188.234 88.7969 187.844 90.0573 187.844 91.7031ZM203.922 81.1562V77.0938H208.312V81.1562H203.922ZM203.922 100V83.4062H208.312V100H203.922ZM227.922 100H223.531V91.5312C223.531 89.7396 223.438 88.5833 223.25 88.0625C223.062 87.5312 222.755 87.1198 222.328 86.8281C221.911 86.5365 221.406 86.3906 220.812 86.3906C220.052 86.3906 219.37 86.599 218.766 87.0156C218.161 87.4323 217.745 87.9844 217.516 88.6719C217.297 89.3594 217.188 90.6302 217.188 92.4844V100H212.797V83.4062H216.875V85.8438C218.323 83.9688 220.146 83.0312 222.344 83.0312C223.312 83.0312 224.198 83.2083 225 83.5625C225.802 83.9062 226.406 84.349 226.812 84.8906C227.229 85.4323 227.516 86.0469 227.672 86.7344C227.839 87.4219 227.922 88.4062 227.922 89.6875V100Z" fill="white"/>
<defs>
<clipPath id="clip0_70_60">
<rect width="70" height="70" fill="white" transform="translate(135 10)"/>
</clipPath>
</defs>
</svg>
