<?xml version="1.0" encoding="iso-8859-1"?>
<!-- Uploaded to: SVG Repo, www.svgrepo.com, Generator: SVG Repo Mixer Tools -->
<!DOCTYPE svg PUBLIC "-//W3C//DTD SVG 1.1//EN" "http://www.w3.org/Graphics/SVG/1.1/DTD/svg11.dtd">
<svg fill="#000000" version="1.1" id="Capa_1" xmlns="http://www.w3.org/2000/svg" xmlns:xlink="http://www.w3.org/1999/xlink" 
	 width="800px" height="800px" viewBox="0 0 31.502 31.502"
	 xml:space="preserve">
<g>
	<g>
		<path d="M26.698,20.467v-7.362c0-5.182-3.604-9.511-8.438-10.647C18.23,1.096,17.122,0,15.752,0c-1.368,0-2.479,1.097-2.508,2.458
			c-4.835,1.135-8.44,5.465-8.44,10.646v7.361c-1.819,0-3.294,1.475-3.294,3.295v2.323h28.48V23.76
			C29.991,21.939,28.517,20.467,26.698,20.467z"/>
		<path d="M15.751,31.502c2.186,0,4.01-1.47,4.589-3.47h-9.179C11.742,30.032,13.565,31.502,15.751,31.502z"/>
	</g>
</g>
</svg>