<?xml version="1.0" encoding="iso-8859-1"?>
<!-- Uploaded to: SVG Repo, www.svgrepo.com, Generator: SVG Repo Mixer Tools -->
<!DOCTYPE svg PUBLIC "-//W3C//DTD SVG 1.1//EN" "http://www.w3.org/Graphics/SVG/1.1/DTD/svg11.dtd">
<svg fill="#000000" version="1.1" id="Capa_1" xmlns="http://www.w3.org/2000/svg" xmlns:xlink="http://www.w3.org/1999/xlink" 
	 width="800px" height="800px" viewBox="0 0 31.32 31.32" xml:space="preserve"
	>
<g>
	<g>
		<ellipse cx="15.66" cy="7.459" rx="15.66" ry="5.729"/>
		<g>
			<path d="M0.105,12.543C0.037,12.754,0,12.97,0,13.189c0,3.164,7.011,5.729,15.66,5.729c8.648,0,15.66-2.564,15.66-5.729
				c0-0.219-0.037-0.435-0.105-0.646c-3.574,2.014-9.203,3.319-15.555,3.319C9.308,15.862,3.68,14.557,0.105,12.543z"/>
		</g>
		<g>
			<path d="M0.105,17.879C0.037,18.092,0,18.307,0,18.525c0,3.164,7.011,5.729,15.66,5.729c8.648,0,15.66-2.564,15.66-5.729
				c0-0.219-0.037-0.434-0.105-0.646c-3.574,2.014-9.203,3.319-15.555,3.319C9.308,21.198,3.68,19.893,0.105,17.879z"/>
		</g>
		<g>
			<path d="M0.105,23.215C0.037,23.428,0,23.643,0,23.861c0,3.164,7.011,5.729,15.66,5.729c8.648,0,15.66-2.564,15.66-5.729
				c0-0.219-0.037-0.434-0.105-0.646c-3.574,2.015-9.203,3.319-15.555,3.319C9.308,26.534,3.68,25.229,0.105,23.215z"/>
		</g>
	</g>
</g>
</svg>