<svg width="960" height="960" viewBox="0 0 960 960" fill="none" xmlns="http://www.w3.org/2000/svg">
<mask id="mask0_608_24602" style="mask-type:luminance" maskUnits="userSpaceOnUse" x="0" y="0" width="960" height="960">
<path d="M480 960C745.097 960 960 745.097 960 480C960 214.903 745.097 0 480 0C214.903 0 0 214.903 0 480C0 745.097 214.903 960 480 960Z" fill="white"/>
</mask>
<g mask="url(#mask0_608_24602)">
<path d="M480 960C745.097 960 960 745.097 960 480C960 214.903 745.097 0 480 0C214.903 0 0 214.903 0 480C0 745.097 214.903 960 480 960Z" fill="url(#paint0_linear_608_24602)"/>
<path d="M480 800C656.731 800 800 656.731 800 480C800 303.269 656.731 160 480 160C303.269 160 160 303.269 160 480C160 656.731 303.269 800 480 800Z" fill="url(#paint1_linear_608_24602)"/>
<path d="M195.556 337.778C372.287 337.778 515.556 194.509 515.556 17.7778C515.556 -158.953 372.287 -302.222 195.556 -302.222C18.8244 -302.222 -124.444 -158.953 -124.444 17.7778C-124.444 194.509 18.8244 337.778 195.556 337.778Z" fill="#FFB000"/>
<path d="M764.444 1262.22C941.176 1262.22 1084.44 1118.95 1084.44 942.222C1084.44 765.491 941.176 622.222 764.444 622.222C587.713 622.222 444.444 765.491 444.444 942.222C444.444 1118.95 587.713 1262.22 764.444 1262.22Z" fill="#D12200"/>
<path d="M480 640C568.366 640 640 568.366 640 480C640 391.634 568.366 320 480 320C391.634 320 320 391.634 320 480C320 568.366 391.634 640 480 640Z" fill="url(#paint2_linear_608_24602)"/>
<path d="M888.889 480C888.889 430.908 849.092 391.111 800 391.111C750.908 391.111 711.111 430.908 711.111 480C711.111 529.092 750.908 568.889 800 568.889C849.092 568.889 888.889 529.092 888.889 480Z" fill="#D12200"/>
<path d="M777.387 253.724C777.387 214.451 745.549 182.613 706.276 182.613C667.002 182.613 635.164 214.451 635.164 253.724C635.164 292.998 667.002 324.836 706.276 324.836C745.549 324.836 777.387 292.998 777.387 253.724Z" fill="#D12200"/>
<path d="M533.333 160C533.333 130.545 509.455 106.667 480 106.667C450.545 106.667 426.667 130.545 426.667 160C426.667 189.455 450.545 213.333 480 213.333C509.455 213.333 533.333 189.455 533.333 160Z" fill="#D12200"/>
<path d="M289.28 253.724C289.28 234.088 273.361 218.169 253.724 218.169C234.088 218.169 218.169 234.088 218.169 253.724C218.169 273.361 234.088 289.28 253.724 289.28C273.361 289.28 289.28 273.361 289.28 253.724Z" fill="#D12200"/>
<path d="M248.516 480.169C248.516 431.077 208.719 391.28 159.627 391.28C110.535 391.28 70.7378 431.077 70.7378 480.169C70.7378 529.261 110.535 569.058 159.627 569.058C208.719 569.058 248.516 529.261 248.516 480.169Z" fill="#FFB000"/>
<path d="M324.462 706.444C324.462 667.171 292.625 635.333 253.351 635.333C214.078 635.333 182.24 667.171 182.24 706.444C182.24 745.718 214.078 777.556 253.351 777.556C292.625 777.556 324.462 745.718 324.462 706.444Z" fill="#FFB000"/>
<path d="M532.96 800.169C532.96 770.714 509.082 746.836 479.627 746.836C450.172 746.836 426.293 770.714 426.293 800.169C426.293 829.624 450.172 853.502 479.627 853.502C509.082 853.502 532.96 829.624 532.96 800.169Z" fill="#FFB000"/>
<path d="M741.458 706.444C741.458 686.808 725.539 670.889 705.902 670.889C686.265 670.889 670.347 686.808 670.347 706.444C670.347 726.081 686.265 742 705.902 742C725.539 742 741.458 726.081 741.458 706.444Z" fill="#FFB000"/>
</g>
<defs>
<linearGradient id="paint0_linear_608_24602" x1="137.333" y1="137.333" x2="816.16" y2="816.16" gradientUnits="userSpaceOnUse">
<stop stop-color="#146CB6"/>
<stop offset="1" stop-color="#FBFFC2"/>
</linearGradient>
<linearGradient id="paint1_linear_608_24602" x1="708.444" y1="708.444" x2="255.893" y2="255.893" gradientUnits="userSpaceOnUse">
<stop stop-color="#146CB6"/>
<stop offset="1" stop-color="#FBFFC2"/>
</linearGradient>
<linearGradient id="paint2_linear_608_24602" x1="365.778" y1="365.778" x2="592.053" y2="592.053" gradientUnits="userSpaceOnUse">
<stop stop-color="#146CB6"/>
<stop offset="1" stop-color="#FBFFC2"/>
</linearGradient>
</defs>
</svg>
